<svg width="260" height="79" viewBox="0 0 260 79" fill="none" xmlns="http://www.w3.org/2000/svg">
<path d="M-59.625 70.375C-59.75 70.4167 -59.8333 70.375 -59.875 70.25C-59.9167 70.125 -59.9375 70 -59.9375 69.875C-59.8958 69.75 -59.8333 69.6458 -59.75 69.5625C-59.625 69.4792 -59.4792 69.4792 -59.3125 69.5625C-59.8542 68.8958 -60.2083 68.2917 -60.375 67.75C-60.5 67.2083 -60.7708 66.5417 -61.1875 65.75C-61.0625 65.625 -60.9792 65.4583 -60.9375 65.25C-60.8958 65 -60.8333 64.7708 -60.75 64.5625C-60.7083 64.3542 -60.6458 64.2083 -60.5625 64.125C-60.4375 64 -60.2917 64.0208 -60.125 64.1875C-60.2083 63.7292 -60.2083 63.3542 -60.125 63.0625C-60.0417 62.7708 -59.9583 62.5 -59.875 62.25C-59.75 62 -59.6667 61.75 -59.625 61.5C-59.5833 61.25 -59.6458 60.9583 -59.8125 60.625C-59.0208 59.5417 -58.5 58.375 -58.25 57.125C-58 55.8333 -57.8542 54.6667 -57.8125 53.625C-57.4375 53.25 -57.125 52.75 -56.875 52.125C-56.5833 51.5 -56.375 50.8542 -56.25 50.1875C-56.125 49.5208 -56.0625 48.875 -56.0625 48.25C-56.0625 47.5833 -56.1458 47.0625 -56.3125 46.6875C-56.2708 46.5208 -56.1875 46.4375 -56.0625 46.4375C-55.8958 46.3958 -55.7083 46.3958 -55.5 46.4375C-55.2083 44.7708 -55.0208 42.9167 -54.9375 40.875C-54.8125 38.8333 -54.6042 36.875 -54.3125 35C-53.9792 33.0833 -53.4583 31.4167 -52.75 30C-52.0417 28.5417 -50.9167 27.6042 -49.375 27.1875C-49.0833 28.2292 -48.7083 29.1458 -48.25 29.9375C-47.75 30.7292 -47.2292 31.5 -46.6875 32.25C-46.1042 33 -45.5208 33.75 -44.9375 34.5C-44.3542 35.25 -43.8125 36.0833 -43.3125 37C-43.3542 37.9583 -43.4583 39.0625 -43.625 40.3125C-43.75 41.5625 -43.9375 42.8333 -44.1875 44.125C-44.3958 45.4167 -44.625 46.6667 -44.875 47.875C-45.0833 49.0833 -45.2917 50.1042 -45.5 50.9375C-45.4583 51.1458 -45.3125 51.2917 -45.0625 51.375C-44.8125 51.4167 -44.7708 51.6458 -44.9375 52.0625C-43.7292 51.7708 -42.4792 51.5 -41.1875 51.25C-39.8542 50.9583 -38.5625 50.6875 -37.3125 50.4375C-36.0208 50.1458 -34.7708 49.8125 -33.5625 49.4375C-32.3125 49.0625 -31.1458 48.6042 -30.0625 48.0625C-29.8125 46.0625 -29.5 44.0833 -29.125 42.125C-28.75 40.1667 -28.7083 38.1875 -29 36.1875C-28.75 35.9792 -28.5417 35.7292 -28.375 35.4375C-28.2083 35.1458 -27.9583 34.9583 -27.625 34.875C-27.875 33.9167 -27.9792 32.9167 -27.9375 31.875C-27.8958 30.7917 -27.7292 29.7917 -27.4375 28.875C-27.1042 27.9583 -26.625 27.1667 -26 26.5C-25.375 25.7917 -24.6042 25.3333 -23.6875 25.125C-23.1458 25.9167 -22.6667 26.7708 -22.25 27.6875C-21.8333 28.6042 -21.4167 29.5417 -21 30.5C-20.5833 31.4167 -20.1458 32.2917 -19.6875 33.125C-19.1875 33.9583 -18.5625 34.6667 -17.8125 35.25C-17.6875 36.7083 -17.5833 38.2083 -17.5 39.75C-17.4167 41.25 -17.3542 42.8125 -17.3125 44.4375C-17.6875 46.3125 -18.125 48.1458 -18.625 49.9375C-19.0833 51.6875 -19.4167 53.5625 -19.625 55.5625C-19.9583 55.9375 -20.2292 56.3958 -20.4375 56.9375C-20.6458 57.4375 -20.8542 57.9583 -21.0625 58.5C-21.2292 59 -21.4375 59.5 -21.6875 60C-21.9375 60.5 -22.25 60.9167 -22.625 61.25C-22.4583 61.8333 -22.4375 62.3958 -22.5625 62.9375C-22.6458 63.4375 -22.5 64.0417 -22.125 64.75C-22.0417 66.0417 -22.2083 67.125 -22.625 68C-23 68.8333 -23.5417 69.5625 -24.25 70.1875C-24.9167 70.7708 -25.7083 71.25 -26.625 71.625C-27.5 71.9583 -28.375 72.2708 -29.25 72.5625C-29.6667 72.3125 -30.0625 72.0625 -30.4375 71.8125C-30.7708 71.5208 -31.1875 71.3125 -31.6875 71.1875L-31.375 70.625C-32.2083 69.7917 -32.9375 68.9167 -33.5625 68C-34.1458 67.0417 -34.4167 65.9583 -34.375 64.75C-34.375 64.7083 -34.3333 64.4375 -34.25 63.9375C-34.1667 63.3958 -34.0833 62.8333 -34 62.25C-33.875 61.6667 -33.7708 61.125 -33.6875 60.625C-33.5625 60.0833 -33.5 59.7917 -33.5 59.75C-34.6667 59.875 -35.875 60.1458 -37.125 60.5625C-38.375 60.9792 -39.6042 61.4583 -40.8125 62C-41.9792 62.5 -43.0833 63.0417 -44.125 63.625C-45.125 64.1667 -45.9375 64.625 -46.5625 65C-46.5625 65.125 -46.6667 65.4792 -46.875 66.0625C-47.0833 66.6458 -47.3333 67.2708 -47.625 67.9375C-47.9167 68.5625 -48.25 69.125 -48.625 69.625C-48.9583 70.125 -49.3125 70.3542 -49.6875 70.3125C-49.6042 70.5208 -49.5208 70.6875 -49.4375 70.8125C-49.3542 70.8958 -49.3542 71.0833 -49.4375 71.375C-50.1458 71.5833 -50.7917 71.8542 -51.375 72.1875C-51.9167 72.5208 -52.4792 72.7917 -53.0625 73C-53.6458 73.25 -54.2917 73.3542 -55 73.3125C-55.6667 73.3125 -56.4792 73.0625 -57.4375 72.5625C-57.4375 72.2708 -57.5625 72.0208 -57.8125 71.8125C-58.0625 71.5625 -58.3333 71.3542 -58.625 71.1875C-58.875 71.0208 -59.1042 70.875 -59.3125 70.75C-59.5208 70.625 -59.625 70.5 -59.625 70.375ZM-12.5625 70.375C-12.8958 70.0417 -13.1458 69.6458 -13.3125 69.1875C-13.4375 68.7292 -13.7708 68.3542 -14.3125 68.0625C-14.3958 67.4375 -14.5208 66.7292 -14.6875 65.9375C-14.8125 65.1042 -14.9583 64.2708 -15.125 63.4375C-15.25 62.5625 -15.3542 61.7083 -15.4375 60.875C-15.4792 60 -15.4375 59.2083 -15.3125 58.5C-15.2292 58.125 -15.1042 57.7708 -14.9375 57.4375C-14.7292 57.1042 -14.5417 56.7917 -14.375 56.5C-14.1667 56.1667 -14.0208 55.8333 -13.9375 55.5C-13.8125 55.1667 -13.7917 54.8333 -13.875 54.5C-13.625 54.4583 -13.4792 54.3333 -13.4375 54.125C-13.3542 53.875 -13.1458 53.7917 -12.8125 53.875C-12.5208 52.9583 -12.2083 52.1042 -11.875 51.3125C-11.5417 50.5208 -11.1875 49.75 -10.8125 49C-10.4375 48.25 -10.0625 47.5 -9.6875 46.75C-9.27083 45.9583 -8.89583 45.0833 -8.5625 44.125C-9.27083 43.4583 -9.79167 42.75 -10.125 42C-10.4167 41.2083 -10.6458 40.4167 -10.8125 39.625C-10.9792 38.8333 -11.1042 38.0417 -11.1875 37.25C-11.2708 36.4167 -11.4375 35.5833 -11.6875 34.75C-11.1875 34 -10.5833 33.3958 -9.875 32.9375C-9.16667 32.4375 -8.39583 32.0417 -7.5625 31.75C-6.6875 31.4167 -5.75 31.1667 -4.75 31C-3.75 30.7917 -2.6875 30.5625 -1.5625 30.3125C0.4375 29.6875 2.22917 29.2083 3.8125 28.875C5.39583 28.5 6.9375 28.2083 8.4375 28C9.9375 27.75 11.5 27.5417 13.125 27.375C14.75 27.1667 16.625 26.875 18.75 26.5C18.7917 26.625 18.8542 26.6875 18.9375 26.6875C19.0625 26.6875 19.2083 26.6875 19.375 26.6875C19.5 26.9792 19.7292 27.125 20.0625 27.125C20.0625 27 20.0417 26.8958 20 26.8125C20 26.6875 20 26.5833 20 26.5C20.0833 26.5 20.1875 26.5208 20.3125 26.5625C20.4792 26.6042 20.6042 26.6458 20.6875 26.6875C20.8125 26.7292 20.9167 26.7292 21 26.6875C21.0833 26.6042 21.1042 26.4583 21.0625 26.25C21.5625 27.125 22.2083 27.8542 23 28.4375C23.7917 28.9792 24.6667 29.4583 25.625 29.875C25.6667 30.25 25.6667 30.5208 25.625 30.6875C25.625 30.8542 25.6042 31.0208 25.5625 31.1875C25.5208 31.3125 25.5 31.4792 25.5 31.6875C25.5 31.8542 25.5417 32.1042 25.625 32.4375C24.9583 33.5625 24.1875 34.4375 23.3125 35.0625C22.4792 35.6875 21.5833 36.1667 20.625 36.5C19.6667 36.8333 18.6458 37.0833 17.5625 37.25C16.5208 37.4167 15.4375 37.6042 14.3125 37.8125C13.2292 37.9792 12.125 38.2292 11 38.5625C9.875 38.8958 8.77083 39.3958 7.6875 40.0625C7.35417 39.9375 7.04167 39.8958 6.75 39.9375C6.5 39.9375 6.22917 39.9792 5.9375 40.0625C5.64583 40.1458 5.3125 40.2292 4.9375 40.3125C4.60417 40.3958 4.1875 40.3958 3.6875 40.3125C3.35417 40.6042 2.95833 40.8125 2.5 40.9375C2.08333 41.0625 1.64583 41.1875 1.1875 41.3125C1.39583 41.7708 1.47917 42.2292 1.4375 42.6875C1.4375 43.1458 1.5 43.5417 1.625 43.875C3.375 44.0417 5.3125 44.0417 7.4375 43.875C9.5625 43.6667 11.6458 43.5208 13.6875 43.4375C13.7292 43.6458 13.7083 43.7917 13.625 43.875C13.5417 43.9583 13.5 44.1042 13.5 44.3125C13.875 44.5625 14.2292 44.875 14.5625 45.25C14.8958 45.625 15.2292 46 15.5625 46.375C15.9375 46.7083 16.3125 47 16.6875 47.25C17.0625 47.4583 17.5 47.5417 18 47.5C18.2083 47.9167 18.3542 48.3542 18.4375 48.8125C18.5208 49.2708 18.4583 49.75 18.25 50.25C17.4167 50.7917 16.6042 51.3542 15.8125 51.9375C15.0208 52.4792 14.1875 52.9792 13.3125 53.4375C12.4792 53.8958 11.5625 54.2708 10.5625 54.5625C9.5625 54.8542 8.47917 54.9792 7.3125 54.9375C7.10417 54.9375 6.91667 54.9375 6.75 54.9375C6.625 54.9375 6.45833 54.8542 6.25 54.6875C5.83333 54.8958 5.27083 54.9792 4.5625 54.9375C3.89583 54.8542 3.33333 54.9167 2.875 55.125C2.29167 54.9167 1.60417 54.8125 0.8125 54.8125C0.0625 54.8125 -0.604167 54.7083 -1.1875 54.5C-1.9375 55.5833 -2.64583 56.7292 -3.3125 57.9375C-3.97917 59.1042 -4.5625 60.3542 -5.0625 61.6875C-3.35417 61.9375 -1.9375 62.0417 -0.8125 62C0.3125 61.9583 1.375 61.875 2.375 61.75C3.375 61.625 4.39583 61.5 5.4375 61.375C6.52083 61.25 7.83333 61.2083 9.375 61.25C10.4167 60.75 11.6042 60.4167 12.9375 60.25C14.3125 60.0417 15.5833 59.75 16.75 59.375C17.1667 59.5 17.5208 59.75 17.8125 60.125C18.1042 60.4583 18.375 60.8125 18.625 61.1875C18.9167 61.5208 19.2083 61.8125 19.5 62.0625C19.7917 62.3125 20.1667 62.3958 20.625 62.3125C20.8333 62.5208 20.9583 62.7708 21 63.0625C21.0833 63.3542 21.1458 63.625 21.1875 63.875C21.2708 64.125 21.375 64.3333 21.5 64.5C21.625 64.625 21.8542 64.6667 22.1875 64.625C21.3958 66.25 20.5 67.5 19.5 68.375C18.5417 69.25 17.4375 69.9375 16.1875 70.4375C14.9792 70.8958 13.6042 71.25 12.0625 71.5C10.5625 71.7083 8.875 71.9792 7 72.3125C6.54167 72.3958 6.14583 72.3958 5.8125 72.3125C5.52083 72.1875 5.20833 72.125 4.875 72.125C3.70833 72.3333 2.3125 72.5417 0.6875 72.75C-0.895833 72.9583 -2.5 73.0417 -4.125 73C-5.75 72.9583 -7.3125 72.75 -8.8125 72.375C-10.3125 72 -11.5625 71.3333 -12.5625 70.375ZM27.625 70.1875C27.4583 70.0208 27.3125 69.8333 27.1875 69.625C27.0625 69.375 26.9583 69.0625 26.875 68.6875C26.2917 67.9792 25.8333 67.1667 25.5 66.25C25.1667 65.3333 24.9375 64.3958 24.8125 63.4375C24.6875 62.4375 24.6667 61.4375 24.75 60.4375C24.8333 59.4375 24.9792 58.5 25.1875 57.625C25.3125 57.2083 25.4167 56.7708 25.5 56.3125C25.7083 55.5208 25.9167 54.75 26.125 54C26.3333 53.2083 26.6458 52.5625 27.0625 52.0625C26.8958 51.6042 26.9167 51.1042 27.125 50.5625C27.3333 50.0208 27.5417 49.5208 27.75 49.0625C27.8333 48.9375 27.8958 48.8333 27.9375 48.75C27.9792 48.625 28.0208 48.5208 28.0625 48.4375C28.5625 46.9792 29.0417 45.5833 29.5 44.25C30 42.875 30.4792 41.5625 30.9375 40.3125C31.7708 38.0208 32.5625 35.7708 33.3125 33.5625C34.1042 31.3542 34.8125 29 35.4375 26.5C35.7708 26.25 36.0625 26.0833 36.3125 26C36.3958 25.9583 36.5 25.9167 36.625 25.875C36.75 25.8333 36.8958 25.8125 37.0625 25.8125C37.9375 26.2708 38.9583 26.7083 40.125 27.125C41.3333 27.5 42.3542 27.6875 43.1875 27.6875L44.25 28.625C44.7917 29.25 45.25 29.9167 45.625 30.625C46.0417 31.2917 46.1667 32.1667 46 33.25C45.75 33.625 45.5417 33.8542 45.375 33.9375C45.125 34.8958 44.8542 35.75 44.5625 36.5C44.2708 37.2083 43.9792 37.8958 43.6875 38.5625C43.3542 39.3125 43.0417 40.0625 42.75 40.8125C42.4583 41.5625 42.2083 42.4792 42 43.5625C41.75 43.8542 41.5833 44.1042 41.5 44.3125C41.4583 44.5208 41.3958 44.7292 41.3125 44.9375C41.2292 45.1875 41.125 45.4583 41 45.75C40.875 46 40.6875 46.2292 40.4375 46.4375C40.2708 47.7292 40.0208 48.7917 39.6875 49.625C39.3542 50.4167 39.0208 51.2083 38.6875 52C38.1042 53.4583 37.5625 54.9167 37.0625 56.375C36.5625 57.7917 36.2708 59.4167 36.1875 61.25C36.6875 61.125 37.1458 61.0625 37.5625 61.0625C38.1042 61.0625 38.625 61.1458 39.125 61.3125C40.625 60.5625 42.25 60.1042 44 59.9375C45.7917 59.7708 47.5625 59.6667 49.3125 59.625C50.7708 59.625 52.125 59.5625 53.375 59.4375C53.7917 59.7292 54.0625 59.8958 54.1875 59.9375C54.3125 59.9375 54.5208 59.9375 54.8125 59.9375C54.9375 59.9375 55.0625 59.9375 55.1875 59.9375C55.3125 59.9375 55.4792 59.9583 55.6875 60C56.2708 60.5833 56.8333 61 57.375 61.25C57.9167 61.4583 58.5 61.6667 59.125 61.875C59.6667 62.0833 60.1875 62.3125 60.6875 62.5625C61.2292 62.7708 61.75 63.0625 62.25 63.4375L62.8125 66.625C63.1458 67.0833 63.2917 67.3958 63.25 67.5625C63.25 67.8958 63.1667 68.1875 63 68.4375L63.125 69.25C62.3333 69.4167 61.8125 69.6042 61.5625 69.8125C61.3125 69.9792 61.0417 70.2083 60.75 70.5C60.2917 70.5417 59.8542 70.5625 59.4375 70.5625C58.6042 70.5625 57.75 70.6875 56.875 70.9375C55.625 70.4792 54.25 70.25 52.75 70.25C52.1667 70.25 51.5625 70.2708 50.9375 70.3125C50.3542 70.3542 49.7708 70.4167 49.1875 70.5C48.5625 70.5833 47.9375 70.6667 47.3125 70.75C46.6875 70.7917 46.0625 70.8125 45.4375 70.8125C44.9375 70.8958 44.5833 70.9583 44.375 71C44.1667 71.0417 43.9583 71.1042 43.75 71.1875C42.3333 71.6458 40.7917 72.1042 39.125 72.5625C37.5 73.0208 35.8542 73.25 34.1875 73.25C31.7292 73.25 29.75 72.625 28.25 71.375C28.0833 71 27.9583 70.75 27.875 70.625C27.7917 70.5 27.7083 70.3542 27.625 70.1875ZM68.0625 70.375C67.7292 70.0417 67.4792 69.6458 67.3125 69.1875C67.1875 68.7292 66.8542 68.3542 66.3125 68.0625C66.2292 67.4375 66.1042 66.7292 65.9375 65.9375C65.8125 65.1042 65.6667 64.2708 65.5 63.4375C65.375 62.5625 65.2708 61.7083 65.1875 60.875C65.1458 60 65.1875 59.2083 65.3125 58.5C65.3958 58.125 65.5208 57.7708 65.6875 57.4375C65.8958 57.1042 66.0833 56.7917 66.25 56.5C66.4583 56.1667 66.6042 55.8333 66.6875 55.5C66.8125 55.1667 66.8333 54.8333 66.75 54.5C67 54.4583 67.1458 54.3333 67.1875 54.125C67.2708 53.875 67.4792 53.7917 67.8125 53.875C68.1042 52.9583 68.4167 52.1042 68.75 51.3125C69.0833 50.5208 69.4375 49.75 69.8125 49C70.1875 48.25 70.5625 47.5 70.9375 46.75C71.3542 45.9583 71.7292 45.0833 72.0625 44.125C71.3542 43.4583 70.8333 42.75 70.5 42C70.2083 41.2083 69.9792 40.4167 69.8125 39.625C69.6458 38.8333 69.5208 38.0417 69.4375 37.25C69.3542 36.4167 69.1875 35.5833 68.9375 34.75C69.4375 34 70.0417 33.3958 70.75 32.9375C71.4583 32.4375 72.2292 32.0417 73.0625 31.75C73.9375 31.4167 74.875 31.1667 75.875 31C76.875 30.7917 77.9375 30.5625 79.0625 30.3125C81.0625 29.6875 82.8542 29.2083 84.4375 28.875C86.0208 28.5 87.5625 28.2083 89.0625 28C90.5625 27.75 92.125 27.5417 93.75 27.375C95.375 27.1667 97.25 26.875 99.375 26.5C99.4167 26.625 99.4792 26.6875 99.5625 26.6875C99.6875 26.6875 99.8333 26.6875 100 26.6875C100.125 26.9792 100.354 27.125 100.688 27.125C100.688 27 100.667 26.8958 100.625 26.8125C100.625 26.6875 100.625 26.5833 100.625 26.5C100.708 26.5 100.812 26.5208 100.938 26.5625C101.104 26.6042 101.229 26.6458 101.312 26.6875C101.438 26.7292 101.542 26.7292 101.625 26.6875C101.708 26.6042 101.729 26.4583 101.688 26.25C102.188 27.125 102.833 27.8542 103.625 28.4375C104.417 28.9792 105.292 29.4583 106.25 29.875C106.292 30.25 106.292 30.5208 106.25 30.6875C106.25 30.8542 106.229 31.0208 106.188 31.1875C106.146 31.3125 106.125 31.4792 106.125 31.6875C106.125 31.8542 106.167 32.1042 106.25 32.4375C105.583 33.5625 104.812 34.4375 103.938 35.0625C103.104 35.6875 102.208 36.1667 101.25 36.5C100.292 36.8333 99.2708 37.0833 98.1875 37.25C97.1458 37.4167 96.0625 37.6042 94.9375 37.8125C93.8542 37.9792 92.75 38.2292 91.625 38.5625C90.5 38.8958 89.3958 39.3958 88.3125 40.0625C87.9792 39.9375 87.6667 39.8958 87.375 39.9375C87.125 39.9375 86.8542 39.9792 86.5625 40.0625C86.2708 40.1458 85.9375 40.2292 85.5625 40.3125C85.2292 40.3958 84.8125 40.3958 84.3125 40.3125C83.9792 40.6042 83.5833 40.8125 83.125 40.9375C82.7083 41.0625 82.2708 41.1875 81.8125 41.3125C82.0208 41.7708 82.1042 42.2292 82.0625 42.6875C82.0625 43.1458 82.125 43.5417 82.25 43.875C84 44.0417 85.9375 44.0417 88.0625 43.875C90.1875 43.6667 92.2708 43.5208 94.3125 43.4375C94.3542 43.6458 94.3333 43.7917 94.25 43.875C94.1667 43.9583 94.125 44.1042 94.125 44.3125C94.5 44.5625 94.8542 44.875 95.1875 45.25C95.5208 45.625 95.8542 46 96.1875 46.375C96.5625 46.7083 96.9375 47 97.3125 47.25C97.6875 47.4583 98.125 47.5417 98.625 47.5C98.8333 47.9167 98.9792 48.3542 99.0625 48.8125C99.1458 49.2708 99.0833 49.75 98.875 50.25C98.0417 50.7917 97.2292 51.3542 96.4375 51.9375C95.6458 52.4792 94.8125 52.9792 93.9375 53.4375C93.1042 53.8958 92.1875 54.2708 91.1875 54.5625C90.1875 54.8542 89.1042 54.9792 87.9375 54.9375C87.7292 54.9375 87.5417 54.9375 87.375 54.9375C87.25 54.9375 87.0833 54.8542 86.875 54.6875C86.4583 54.8958 85.8958 54.9792 85.1875 54.9375C84.5208 54.8542 83.9583 54.9167 83.5 55.125C82.9167 54.9167 82.2292 54.8125 81.4375 54.8125C80.6875 54.8125 80.0208 54.7083 79.4375 54.5C78.6875 55.5833 77.9792 56.7292 77.3125 57.9375C76.6458 59.1042 76.0625 60.3542 75.5625 61.6875C77.2708 61.9375 78.6875 62.0417 79.8125 62C80.9375 61.9583 82 61.875 83 61.75C84 61.625 85.0208 61.5 86.0625 61.375C87.1458 61.25 88.4583 61.2083 90 61.25C91.0417 60.75 92.2292 60.4167 93.5625 60.25C94.9375 60.0417 96.2083 59.75 97.375 59.375C97.7917 59.5 98.1458 59.75 98.4375 60.125C98.7292 60.4583 99 60.8125 99.25 61.1875C99.5417 61.5208 99.8333 61.8125 100.125 62.0625C100.417 62.3125 100.792 62.3958 101.25 62.3125C101.458 62.5208 101.583 62.7708 101.625 63.0625C101.708 63.3542 101.771 63.625 101.812 63.875C101.896 64.125 102 64.3333 102.125 64.5C102.25 64.625 102.479 64.6667 102.812 64.625C102.021 66.25 101.125 67.5 100.125 68.375C99.1667 69.25 98.0625 69.9375 96.8125 70.4375C95.6042 70.8958 94.2292 71.25 92.6875 71.5C91.1875 71.7083 89.5 71.9792 87.625 72.3125C87.1667 72.3958 86.7708 72.3958 86.4375 72.3125C86.1458 72.1875 85.8333 72.125 85.5 72.125C84.3333 72.3333 82.9375 72.5417 81.3125 72.75C79.7292 72.9583 78.125 73.0417 76.5 73C74.875 72.9583 73.3125 72.75 71.8125 72.375C70.3125 72 69.0625 71.3333 68.0625 70.375ZM116 66.625C115.583 66.9583 115.333 67.3958 115.25 67.9375C115.167 68.4375 115.062 68.9375 114.938 69.4375C114.812 69.9375 114.583 70.375 114.25 70.75C113.958 71.0833 113.417 71.2292 112.625 71.1875C112.458 71.3958 112.417 71.5208 112.5 71.5625C112.625 71.6042 112.729 71.7917 112.812 72.125C112.229 72.0417 111.812 72.0833 111.562 72.25C111.312 72.4167 111 72.5417 110.625 72.625C109.667 72.3333 108.854 71.8125 108.188 71.0625C107.562 70.2708 107 69.4167 106.5 68.5C106.042 67.5833 105.625 66.6458 105.25 65.6875C104.917 64.7292 104.562 63.8958 104.188 63.1875C104.188 63.0208 104.271 62.9583 104.438 63C104.562 63 104.688 63 104.812 63C104.604 62.5833 104.458 62.125 104.375 61.625C104.25 61.0833 104.042 60.6458 103.75 60.3125C104.958 57.7292 106.25 55.0417 107.625 52.25C109 49.4167 110.375 46.5625 111.75 43.6875C113.167 40.7708 114.562 37.8542 115.938 34.9375C117.354 31.9792 118.708 29.0833 120 26.25C121.167 26.6667 122.292 27.1667 123.375 27.75C124.5 28.2917 125.521 28.9375 126.438 29.6875C127.354 30.4375 128.125 31.3125 128.75 32.3125C129.417 33.2708 129.854 34.375 130.062 35.625C129.979 35.875 129.875 35.9583 129.75 35.875C129.625 35.7917 129.521 35.8333 129.438 36C129.646 36.25 129.75 36.4375 129.75 36.5625C129.792 36.6458 129.792 36.75 129.75 36.875C129.708 36.9583 129.688 37.0833 129.688 37.25C129.688 37.4167 129.792 37.6458 130 37.9375C129.792 37.8958 129.646 37.9375 129.562 38.0625C129.479 38.1458 129.333 38.1458 129.125 38.0625C129.333 38.6458 129.396 39.1042 129.312 39.4375C129.229 39.7708 129.104 40.0833 128.938 40.375C128.771 40.625 128.625 40.9167 128.5 41.25C128.417 41.5417 128.458 41.9583 128.625 42.5C128.458 42.5 128.333 42.5417 128.25 42.625C128.208 42.6667 128.167 42.7292 128.125 42.8125C128.083 42.8958 128.021 42.9792 127.938 43.0625C127.896 43.1042 127.792 43.1042 127.625 43.0625C127.75 44.1458 127.792 45.25 127.75 46.375C127.708 47.4583 127.667 48.5833 127.625 49.75C127.583 50.875 127.583 52.0417 127.625 53.25C127.667 54.4583 127.833 55.7083 128.125 57C129.917 55.9583 131.354 54.6042 132.438 52.9375C133.562 51.2708 134.438 49.4167 135.062 47.375C135.729 45.3333 136.229 43.1458 136.562 40.8125C136.938 38.4792 137.312 36.1042 137.688 33.6875C138.146 33.2292 138.5 32.6667 138.75 32C139.042 31.3333 139.271 30.6458 139.438 29.9375C139.646 29.2292 139.833 28.5208 140 27.8125C140.208 27.0625 140.479 26.3958 140.812 25.8125C141.562 25.8958 142.188 26.125 142.688 26.5C143.229 26.8333 143.729 27.2292 144.188 27.6875C144.646 28.1042 145.125 28.5 145.625 28.875C146.125 29.25 146.75 29.5 147.5 29.625C148.083 30.4583 148.625 31.2708 149.125 32.0625C149.625 32.8125 149.958 33.6667 150.125 34.625C149.875 35.0417 149.688 35.5 149.562 36C149.438 36.5 149.292 37 149.125 37.5C149 38 148.812 38.4583 148.562 38.875C148.312 39.2917 147.958 39.6458 147.5 39.9375C147.375 41.1875 147.188 42.3542 146.938 43.4375C146.688 44.5208 146.458 45.5833 146.25 46.625C146.042 47.6667 145.854 48.75 145.688 49.875C145.521 51 145.458 52.2292 145.5 53.5625C145.125 54.7708 144.708 56.0208 144.25 57.3125C143.792 58.5625 143.458 59.7292 143.25 60.8125C142.458 61.4375 141.833 62.2083 141.375 63.125C140.917 64.0417 140.438 64.9583 139.938 65.875C139.729 66.0417 139.604 66.0833 139.562 66C139.521 65.875 139.333 65.7917 139 65.75C139.042 66.125 138.958 66.375 138.75 66.5C138.583 66.5833 138.604 66.875 138.812 67.375C138.104 67.7083 137.479 68.1458 136.938 68.6875C136.396 69.2292 135.792 69.7292 135.125 70.1875C134.5 70.6458 133.75 70.9583 132.875 71.125C132.042 71.25 130.938 71.0625 129.562 70.5625C127.521 69.0625 125.688 67.3333 124.062 65.375C122.438 63.4167 121.146 61.1042 120.188 58.4375C119.771 58.5625 119.458 58.8333 119.25 59.25C119.042 59.6667 118.854 60.1042 118.688 60.5625C118.521 61.0208 118.354 61.4375 118.188 61.8125C118.021 62.1875 117.771 62.375 117.438 62.375C117.354 62.75 117.188 63.1042 116.938 63.4375C116.729 63.7292 116.521 64.0417 116.312 64.375C116.104 64.6667 115.938 65 115.812 65.375C115.729 65.75 115.792 66.1667 116 66.625ZM149.875 37.25C149.833 36.9167 149.75 36.625 149.625 36.375C149.542 36.0833 149.438 35.7708 149.312 35.4375C149.104 34.9375 148.917 34.3958 148.75 33.8125C148.583 33.2292 148.5 32.5417 148.5 31.75C148.583 31.3333 148.688 31.0417 148.812 30.875C148.938 30.6667 149.062 30.5 149.188 30.375L149.438 29.25H150.375C150.708 29.2917 151.042 29.3125 151.375 29.3125C151.75 29.3125 152.104 29.3125 152.438 29.3125C154.021 29.3125 155.646 29.25 157.312 29.125C158.979 29 160.688 28.8542 162.438 28.6875C164.354 28.4375 166.417 28.25 168.625 28.125C168.833 27.6667 168.958 27.375 169 27.25C169.083 27.125 169.167 26.9792 169.25 26.8125L169.938 26.4375C170.896 26.3958 171.562 26.5208 171.938 26.8125C172.312 27.0625 172.604 27.3125 172.812 27.5625C173.896 27.4792 175 27.375 176.125 27.25C177.25 27.0833 178.417 26.9167 179.625 26.75C181.292 26.5417 182.979 26.3333 184.688 26.125C186.396 25.9167 188.062 25.8125 189.688 25.8125C190.396 25.8125 191.062 25.8333 191.688 25.875C192.312 25.9167 192.917 25.9792 193.5 26.0625L194.25 26.625C194.417 26.9167 194.625 27.1875 194.875 27.4375C195.125 27.6875 195.417 27.9375 195.75 28.1875C196.375 28.6875 196.979 29.3125 197.562 30.0625C198.188 30.8125 198.417 31.9167 198.25 33.375L197.938 34C197.771 34.1667 197.562 34.3333 197.312 34.5L196.688 35.3125H196C195.583 35.3125 195.271 35.3542 195.062 35.4375C194.854 35.4792 194.604 35.5625 194.312 35.6875C194.146 35.7708 193.958 35.8542 193.75 35.9375C193.542 35.9792 193.312 36.0417 193.062 36.125C192.604 36.0833 192.25 36.0625 192 36.0625C191.75 36.0625 191.458 36.0625 191.125 36.0625C189.875 36.0625 188.521 36.1458 187.062 36.3125C185.604 36.4792 184.188 36.6667 182.812 36.875C181.812 37 180.854 37.125 179.938 37.25C179.021 37.3333 178.188 37.4167 177.438 37.5C177.021 38.5833 176.646 39.5417 176.312 40.375C175.979 41.2083 175.625 42.0417 175.25 42.875C174.875 43.7083 174.521 44.5625 174.188 45.4375C173.854 46.2708 173.542 47.2083 173.25 48.25C172.75 49 172.333 49.7292 172 50.4375C171.667 51.1042 171.396 51.875 171.188 52.75C170.562 53.4583 170.104 54.2292 169.812 55.0625C169.562 55.8958 169.333 56.6042 169.125 57.1875L168.875 58.125C168.583 58.4167 168.396 58.6458 168.312 58.8125C168.271 58.9792 168.167 59.1667 168 59.375C167.875 59.9167 167.708 60.4375 167.5 60.9375C167.417 61.1458 167.333 61.375 167.25 61.625C167.167 61.8333 167.146 62 167.188 62.125C167.104 62.5833 166.979 62.9375 166.812 63.1875C166.812 63.4375 166.792 63.6875 166.75 63.9375C166.708 64.1875 166.667 64.4375 166.625 64.6875C166.542 64.9792 166.479 65.25 166.438 65.5C166.396 65.7083 166.417 65.9167 166.5 66.125C166.625 66.2917 166.75 66.4583 166.875 66.625C167 66.7917 167.104 67 167.188 67.25C167.271 67.3333 167.375 67.3958 167.5 67.4375C167.625 67.4792 167.729 67.5417 167.812 67.625C168.146 67.9167 168.458 68.0833 168.75 68.125L169.375 68.875C169.625 70.375 169.396 71.5417 168.688 72.375C167.938 73.3333 166.688 73.8125 164.938 73.8125L164.062 73.75C163.771 73.4583 163.604 73.2708 163.562 73.1875C163.188 73.0208 162.875 72.875 162.625 72.75C162.375 72.6667 162.146 72.4792 161.938 72.1875C161.854 72.1042 161.75 72.0625 161.625 72.0625C161.5 72.0208 161.396 71.9583 161.312 71.875C160.896 71.75 160.562 71.6042 160.312 71.4375L159.625 71.0625C159.667 70.6458 159.688 70.3542 159.688 70.1875C159.354 69.7292 159.083 69.2292 158.875 68.6875C158.708 68.1458 158.562 67.5833 158.438 67C158.312 66.5417 158.188 66.125 158.062 65.75C157.979 65.375 157.833 65.0417 157.625 64.75C157.542 61.8333 157.812 59.3958 158.438 57.4375C159.062 55.4375 159.75 53.5 160.5 51.625C160.917 50.625 161.312 49.6042 161.688 48.5625C162.062 47.5208 162.396 46.4583 162.688 45.375L163.375 44.6875C163.667 44.4375 163.854 44.2917 163.938 44.25C163.938 43.7083 164.042 43.1875 164.25 42.6875C164.458 42.1458 164.688 41.6042 164.938 41.0625C165.104 40.7292 165.25 40.3958 165.375 40.0625C165.542 39.7292 165.646 39.4375 165.688 39.1875C165.396 39.1875 165.125 39.2083 164.875 39.25C164.667 39.25 164.438 39.2708 164.188 39.3125C163.646 39.4375 163.125 39.5 162.625 39.5C162.25 39.5 161.979 39.4792 161.812 39.4375C161.479 39.6042 161.167 39.7083 160.875 39.75C160.583 39.75 160.292 39.75 160 39.75H159.25H158.5C158 39.75 157.604 39.8125 157.312 39.9375C156.729 39.9375 156.354 39.9375 156.188 39.9375C156.021 39.9375 155.833 39.9375 155.625 39.9375H154.875H154.125C153.792 39.9375 153.417 39.9167 153 39.875C152.583 39.7917 152.146 39.625 151.688 39.375L151.25 38.875C151 38.4167 150.771 38.1667 150.562 38.125L149.875 37.9375V37.25ZM188.438 73.25C187.854 72.875 187.396 72.3958 187.062 71.8125C186.688 71.2292 186.396 70.6042 186.188 69.9375C185.938 69.2708 185.75 68.5833 185.625 67.875C185.458 67.125 185.292 66.4167 185.125 65.75C185.125 65.1667 185.25 64.75 185.5 64.5C185.75 64.2083 186.021 63.9375 186.312 63.6875C187.312 63.6458 188.208 63.5625 189 63.4375C189.792 63.3125 190.562 63.1875 191.312 63.0625C192.062 62.9375 192.812 62.8333 193.562 62.75C194.312 62.625 195.125 62.5625 196 62.5625C196.625 61.2708 197.208 60.0417 197.75 58.875C198.292 57.6667 198.812 56.5208 199.312 55.4375C199.562 54.3958 199.875 53.4375 200.25 52.5625C200.667 51.6458 201.062 50.7917 201.438 50C201.812 49.1667 202.146 48.3542 202.438 47.5625C202.729 46.7292 202.917 45.8542 203 44.9375C203.5 43.4792 203.938 42.1458 204.312 40.9375C204.729 39.6875 205.042 38.2083 205.25 36.5C203.667 36.75 202.396 37 201.438 37.25C200.479 37.4583 199.792 37.6667 199.375 37.875C198.542 37.8333 197.875 37.6667 197.375 37.375C196.917 37.0833 196.542 36.7292 196.25 36.3125C195.958 35.8958 195.708 35.4167 195.5 34.875C195.292 34.3333 195.042 33.7708 194.75 33.1875C194.917 32.8125 194.958 32.2708 194.875 31.5625C194.792 30.8125 194.542 30.2708 194.125 29.9375C194.458 29.8542 194.708 29.5833 194.875 29.125C195.042 28.625 195.062 28.25 194.938 28C195.646 27.7917 196.396 27.6667 197.188 27.625C197.979 27.5417 198.75 27.4792 199.5 27.4375C200.292 27.3542 201.042 27.2708 201.75 27.1875C202.458 27.0625 203.062 26.8333 203.562 26.5C205.729 26.4167 207.979 26.3333 210.312 26.25C212.688 26.1667 214.875 26.0625 216.875 25.9375C217.625 26.1875 218.479 26.3125 219.438 26.3125C220.438 26.3125 221.417 26.375 222.375 26.5C223.375 26.625 224.25 26.8958 225 27.3125C225.792 27.7292 226.333 28.4583 226.625 29.5C227.25 29.5833 227.708 29.75 228 30C228.333 30.25 228.542 30.5625 228.625 30.9375C228.708 31.2708 228.729 31.6667 228.688 32.125C228.688 32.5417 228.688 32.9583 228.688 33.375C228.021 33.875 227.167 34.2917 226.125 34.625C225.125 34.9167 224.021 35.1667 222.812 35.375C221.604 35.5417 220.333 35.6667 219 35.75C217.708 35.7917 216.438 35.8333 215.188 35.875C214.979 37.25 214.604 38.875 214.062 40.75C213.562 42.5833 213.042 44.3958 212.5 46.1875C211.958 47.9375 211.479 49.5208 211.062 50.9375C210.688 52.3125 210.521 53.2083 210.562 53.625C210.146 54.5833 209.792 55.3958 209.5 56.0625C209.25 56.7292 209 57.3542 208.75 57.9375C208.542 58.5208 208.312 59.1042 208.062 59.6875C207.854 60.2292 207.583 60.8542 207.25 61.5625H211.5C211.583 62.0208 211.771 62.3333 212.062 62.5C212.354 62.6667 212.667 62.8125 213 62.9375C213.333 63.0625 213.625 63.2292 213.875 63.4375C214.167 63.6042 214.312 63.8958 214.312 64.3125C215.104 64.5208 215.604 64.8333 215.812 65.25C216.021 65.6667 216.062 66.125 215.938 66.625C215.854 67.0833 215.646 67.5625 215.312 68.0625C215.021 68.5625 214.729 69 214.438 69.375C214.062 69.2917 213.708 69.3958 213.375 69.6875C213.042 69.9375 212.729 70.2292 212.438 70.5625C211.229 70.3958 210.042 70.375 208.875 70.5C207.708 70.625 206.625 70.7292 205.625 70.8125C205.417 70.8542 205.333 70.9792 205.375 71.1875C205.417 71.3542 205.375 71.4792 205.25 71.5625C203.958 71.1458 202.625 70.9792 201.25 71.0625C199.917 71.1458 198.542 71.3542 197.125 71.6875C195.75 71.9792 194.333 72.2917 192.875 72.625C191.417 73 189.938 73.2083 188.438 73.25ZM226.188 67.0625C224.979 66.1458 223.979 65 223.188 63.625C222.438 62.25 221.833 60.7917 221.375 59.25C220.958 57.7083 220.667 56.125 220.5 54.5C220.375 52.8333 220.333 51.25 220.375 49.75C220.75 48.625 221.208 47.6042 221.75 46.6875C222.292 45.7292 222.896 44.8333 223.562 44C224.229 43.125 224.917 42.3125 225.625 41.5625C226.375 40.7708 227.104 39.9792 227.812 39.1875C228.062 39.1875 228.292 39.25 228.5 39.375C228.667 38.9167 228.917 38.5208 229.25 38.1875C229.583 37.8542 229.938 37.5625 230.312 37.3125C230.688 37.0208 231.062 36.75 231.438 36.5C231.812 36.2083 232.125 35.875 232.375 35.5C233.417 35.25 234.333 34.8958 235.125 34.4375C235.958 33.9792 236.75 33.4792 237.5 32.9375C238.25 32.3958 239.021 31.8958 239.812 31.4375C240.604 30.9792 241.521 30.625 242.562 30.375C242.938 29.9583 243.396 29.6042 243.938 29.3125C244.521 29.0208 245.083 28.75 245.625 28.5C246.208 28.25 246.75 27.9792 247.25 27.6875C247.792 27.3958 248.229 27 248.562 26.5C248.812 26.8333 249.167 26.9583 249.625 26.875C250.083 26.75 250.5 26.625 250.875 26.5C251.125 26.4583 251.333 26.5 251.5 26.625C251.667 26.75 251.812 26.8958 251.938 27.0625C252.104 27.1875 252.229 27.2708 252.312 27.3125C252.438 27.3542 252.562 27.2292 252.688 26.9375C253.021 26.9792 253.104 27.125 252.938 27.375C252.812 27.625 252.729 27.7917 252.688 27.875C253.104 27.7917 253.438 27.875 253.688 28.125C253.979 28.3333 254.417 28.4792 255 28.5625C255.208 28.7708 255.271 28.9375 255.188 29.0625C255.104 29.1875 255.042 29.3958 255 29.6875C256.5 30.1458 257.458 30.875 257.875 31.875C258.292 32.8333 258.333 33.8542 258 34.9375C257.667 35.9792 257.042 36.9583 256.125 37.875C255.25 38.75 254.271 39.3333 253.188 39.625C251.896 39.9583 250.688 40.2917 249.562 40.625C248.479 40.9583 247.417 41.3333 246.375 41.75C245.375 42.1667 244.417 42.6667 243.5 43.25C242.625 43.7917 241.854 44.4375 241.188 45.1875C240.021 45.5208 238.958 45.9792 238 46.5625C237.083 47.1458 236.208 47.7917 235.375 48.5C234.583 49.2083 233.812 49.9583 233.062 50.75C232.312 51.5 231.562 52.25 230.812 53C230.812 53.7083 230.688 54.25 230.438 54.625C230.188 55 229.917 55.375 229.625 55.75C229.708 56.5417 229.875 57.2292 230.125 57.8125C230.417 58.3542 230.708 58.9167 231 59.5C234.333 60.5 237.854 61.125 241.562 61.375C245.312 61.5833 249.021 61.7083 252.688 61.75C253.062 62.25 253.479 62.7292 253.938 63.1875C254.438 63.6042 254.875 64.0417 255.25 64.5C255.667 64.9583 255.979 65.5 256.188 66.125C256.438 66.7083 256.5 67.4167 256.375 68.25C255.667 68.9583 254.896 69.6458 254.062 70.3125C253.229 70.9375 252.396 71.5625 251.562 72.1875C251.188 72.2292 250.729 72.2292 250.188 72.1875C249.688 72.1458 249.146 72.125 248.562 72.125C248.021 72.125 247.458 72.1667 246.875 72.25C246.333 72.2917 245.812 72.4167 245.312 72.625C242.688 72.5417 240 72.2292 237.25 71.6875C234.5 71.1042 231.958 70.4167 229.625 69.625C229.167 69.0833 228.688 68.5833 228.188 68.125C227.688 67.625 227.021 67.2708 226.188 67.0625Z" fill="black"/>
<rect x="259.5" y="46.5" width="6" height="337" transform="rotate(90 259.5 46.5)" fill="#E74949"/>
</svg>
