<svg width="337" height="78" viewBox="0 0 337 78" fill="none" xmlns="http://www.w3.org/2000/svg">
<path d="M17.875 69.875C17.75 69.9167 17.6667 69.875 17.625 69.75C17.5833 69.625 17.5625 69.5 17.5625 69.375C17.6042 69.25 17.6667 69.1458 17.75 69.0625C17.875 68.9792 18.0208 68.9792 18.1875 69.0625C17.6458 68.3958 17.2917 67.7917 17.125 67.25C17 66.7083 16.7292 66.0417 16.3125 65.25C16.4375 65.125 16.5208 64.9583 16.5625 64.75C16.6042 64.5 16.6667 64.2708 16.75 64.0625C16.7917 63.8542 16.8542 63.7083 16.9375 63.625C17.0625 63.5 17.2083 63.5208 17.375 63.6875C17.2917 63.2292 17.2917 62.8542 17.375 62.5625C17.4583 62.2708 17.5417 62 17.625 61.75C17.75 61.5 17.8333 61.25 17.875 61C17.9167 60.75 17.8542 60.4583 17.6875 60.125C18.4792 59.0417 19 57.875 19.25 56.625C19.5 55.3333 19.6458 54.1667 19.6875 53.125C20.0625 52.75 20.375 52.25 20.625 51.625C20.9167 51 21.125 50.3542 21.25 49.6875C21.375 49.0208 21.4375 48.375 21.4375 47.75C21.4375 47.0833 21.3542 46.5625 21.1875 46.1875C21.2292 46.0208 21.3125 45.9375 21.4375 45.9375C21.6042 45.8958 21.7917 45.8958 22 45.9375C22.2917 44.2708 22.4792 42.4167 22.5625 40.375C22.6875 38.3333 22.8958 36.375 23.1875 34.5C23.5208 32.5833 24.0417 30.9167 24.75 29.5C25.4583 28.0417 26.5833 27.1042 28.125 26.6875C28.4167 27.7292 28.7917 28.6458 29.25 29.4375C29.75 30.2292 30.2708 31 30.8125 31.75C31.3958 32.5 31.9792 33.25 32.5625 34C33.1458 34.75 33.6875 35.5833 34.1875 36.5C34.1458 37.4583 34.0417 38.5625 33.875 39.8125C33.75 41.0625 33.5625 42.3333 33.3125 43.625C33.1042 44.9167 32.875 46.1667 32.625 47.375C32.4167 48.5833 32.2083 49.6042 32 50.4375C32.0417 50.6458 32.1875 50.7917 32.4375 50.875C32.6875 50.9167 32.7292 51.1458 32.5625 51.5625C33.7708 51.2708 35.0208 51 36.3125 50.75C37.6458 50.4583 38.9375 50.1875 40.1875 49.9375C41.4792 49.6458 42.7292 49.3125 43.9375 48.9375C45.1875 48.5625 46.3542 48.1042 47.4375 47.5625C47.6875 45.5625 48 43.5833 48.375 41.625C48.75 39.6667 48.7917 37.6875 48.5 35.6875C48.75 35.4792 48.9583 35.2292 49.125 34.9375C49.2917 34.6458 49.5417 34.4583 49.875 34.375C49.625 33.4167 49.5208 32.4167 49.5625 31.375C49.6042 30.2917 49.7708 29.2917 50.0625 28.375C50.3958 27.4583 50.875 26.6667 51.5 26C52.125 25.2917 52.8958 24.8333 53.8125 24.625C54.3542 25.4167 54.8333 26.2708 55.25 27.1875C55.6667 28.1042 56.0833 29.0417 56.5 30C56.9167 30.9167 57.3542 31.7917 57.8125 32.625C58.3125 33.4583 58.9375 34.1667 59.6875 34.75C59.8125 36.2083 59.9167 37.7083 60 39.25C60.0833 40.75 60.1458 42.3125 60.1875 43.9375C59.8125 45.8125 59.375 47.6458 58.875 49.4375C58.4167 51.1875 58.0833 53.0625 57.875 55.0625C57.5417 55.4375 57.2708 55.8958 57.0625 56.4375C56.8542 56.9375 56.6458 57.4583 56.4375 58C56.2708 58.5 56.0625 59 55.8125 59.5C55.5625 60 55.25 60.4167 54.875 60.75C55.0417 61.3333 55.0625 61.8958 54.9375 62.4375C54.8542 62.9375 55 63.5417 55.375 64.25C55.4583 65.5417 55.2917 66.625 54.875 67.5C54.5 68.3333 53.9583 69.0625 53.25 69.6875C52.5833 70.2708 51.7917 70.75 50.875 71.125C50 71.4583 49.125 71.7708 48.25 72.0625C47.8333 71.8125 47.4375 71.5625 47.0625 71.3125C46.7292 71.0208 46.3125 70.8125 45.8125 70.6875L46.125 70.125C45.2917 69.2917 44.5625 68.4167 43.9375 67.5C43.3542 66.5417 43.0833 65.4583 43.125 64.25C43.125 64.2083 43.1667 63.9375 43.25 63.4375C43.3333 62.8958 43.4167 62.3333 43.5 61.75C43.625 61.1667 43.7292 60.625 43.8125 60.125C43.9375 59.5833 44 59.2917 44 59.25C42.8333 59.375 41.625 59.6458 40.375 60.0625C39.125 60.4792 37.8958 60.9583 36.6875 61.5C35.5208 62 34.4167 62.5417 33.375 63.125C32.375 63.6667 31.5625 64.125 30.9375 64.5C30.9375 64.625 30.8333 64.9792 30.625 65.5625C30.4167 66.1458 30.1667 66.7708 29.875 67.4375C29.5833 68.0625 29.25 68.625 28.875 69.125C28.5417 69.625 28.1875 69.8542 27.8125 69.8125C27.8958 70.0208 27.9792 70.1875 28.0625 70.3125C28.1458 70.3958 28.1458 70.5833 28.0625 70.875C27.3542 71.0833 26.7083 71.3542 26.125 71.6875C25.5833 72.0208 25.0208 72.2917 24.4375 72.5C23.8542 72.75 23.2083 72.8542 22.5 72.8125C21.8333 72.8125 21.0208 72.5625 20.0625 72.0625C20.0625 71.7708 19.9375 71.5208 19.6875 71.3125C19.4375 71.0625 19.1667 70.8542 18.875 70.6875C18.625 70.5208 18.3958 70.375 18.1875 70.25C17.9792 70.125 17.875 70 17.875 69.875ZM64.9375 69.875C64.6042 69.5417 64.3542 69.1458 64.1875 68.6875C64.0625 68.2292 63.7292 67.8542 63.1875 67.5625C63.1042 66.9375 62.9792 66.2292 62.8125 65.4375C62.6875 64.6042 62.5417 63.7708 62.375 62.9375C62.25 62.0625 62.1458 61.2083 62.0625 60.375C62.0208 59.5 62.0625 58.7083 62.1875 58C62.2708 57.625 62.3958 57.2708 62.5625 56.9375C62.7708 56.6042 62.9583 56.2917 63.125 56C63.3333 55.6667 63.4792 55.3333 63.5625 55C63.6875 54.6667 63.7083 54.3333 63.625 54C63.875 53.9583 64.0208 53.8333 64.0625 53.625C64.1458 53.375 64.3542 53.2917 64.6875 53.375C64.9792 52.4583 65.2917 51.6042 65.625 50.8125C65.9583 50.0208 66.3125 49.25 66.6875 48.5C67.0625 47.75 67.4375 47 67.8125 46.25C68.2292 45.4583 68.6042 44.5833 68.9375 43.625C68.2292 42.9583 67.7083 42.25 67.375 41.5C67.0833 40.7083 66.8542 39.9167 66.6875 39.125C66.5208 38.3333 66.3958 37.5417 66.3125 36.75C66.2292 35.9167 66.0625 35.0833 65.8125 34.25C66.3125 33.5 66.9167 32.8958 67.625 32.4375C68.3333 31.9375 69.1042 31.5417 69.9375 31.25C70.8125 30.9167 71.75 30.6667 72.75 30.5C73.75 30.2917 74.8125 30.0625 75.9375 29.8125C77.9375 29.1875 79.7292 28.7083 81.3125 28.375C82.8958 28 84.4375 27.7083 85.9375 27.5C87.4375 27.25 89 27.0417 90.625 26.875C92.25 26.6667 94.125 26.375 96.25 26C96.2917 26.125 96.3542 26.1875 96.4375 26.1875C96.5625 26.1875 96.7083 26.1875 96.875 26.1875C97 26.4792 97.2292 26.625 97.5625 26.625C97.5625 26.5 97.5417 26.3958 97.5 26.3125C97.5 26.1875 97.5 26.0833 97.5 26C97.5833 26 97.6875 26.0208 97.8125 26.0625C97.9792 26.1042 98.1042 26.1458 98.1875 26.1875C98.3125 26.2292 98.4167 26.2292 98.5 26.1875C98.5833 26.1042 98.6042 25.9583 98.5625 25.75C99.0625 26.625 99.7083 27.3542 100.5 27.9375C101.292 28.4792 102.167 28.9583 103.125 29.375C103.167 29.75 103.167 30.0208 103.125 30.1875C103.125 30.3542 103.104 30.5208 103.062 30.6875C103.021 30.8125 103 30.9792 103 31.1875C103 31.3542 103.042 31.6042 103.125 31.9375C102.458 33.0625 101.688 33.9375 100.812 34.5625C99.9792 35.1875 99.0833 35.6667 98.125 36C97.1667 36.3333 96.1458 36.5833 95.0625 36.75C94.0208 36.9167 92.9375 37.1042 91.8125 37.3125C90.7292 37.4792 89.625 37.7292 88.5 38.0625C87.375 38.3958 86.2708 38.8958 85.1875 39.5625C84.8542 39.4375 84.5417 39.3958 84.25 39.4375C84 39.4375 83.7292 39.4792 83.4375 39.5625C83.1458 39.6458 82.8125 39.7292 82.4375 39.8125C82.1042 39.8958 81.6875 39.8958 81.1875 39.8125C80.8542 40.1042 80.4583 40.3125 80 40.4375C79.5833 40.5625 79.1458 40.6875 78.6875 40.8125C78.8958 41.2708 78.9792 41.7292 78.9375 42.1875C78.9375 42.6458 79 43.0417 79.125 43.375C80.875 43.5417 82.8125 43.5417 84.9375 43.375C87.0625 43.1667 89.1458 43.0208 91.1875 42.9375C91.2292 43.1458 91.2083 43.2917 91.125 43.375C91.0417 43.4583 91 43.6042 91 43.8125C91.375 44.0625 91.7292 44.375 92.0625 44.75C92.3958 45.125 92.7292 45.5 93.0625 45.875C93.4375 46.2083 93.8125 46.5 94.1875 46.75C94.5625 46.9583 95 47.0417 95.5 47C95.7083 47.4167 95.8542 47.8542 95.9375 48.3125C96.0208 48.7708 95.9583 49.25 95.75 49.75C94.9167 50.2917 94.1042 50.8542 93.3125 51.4375C92.5208 51.9792 91.6875 52.4792 90.8125 52.9375C89.9792 53.3958 89.0625 53.7708 88.0625 54.0625C87.0625 54.3542 85.9792 54.4792 84.8125 54.4375C84.6042 54.4375 84.4167 54.4375 84.25 54.4375C84.125 54.4375 83.9583 54.3542 83.75 54.1875C83.3333 54.3958 82.7708 54.4792 82.0625 54.4375C81.3958 54.3542 80.8333 54.4167 80.375 54.625C79.7917 54.4167 79.1042 54.3125 78.3125 54.3125C77.5625 54.3125 76.8958 54.2083 76.3125 54C75.5625 55.0833 74.8542 56.2292 74.1875 57.4375C73.5208 58.6042 72.9375 59.8542 72.4375 61.1875C74.1458 61.4375 75.5625 61.5417 76.6875 61.5C77.8125 61.4583 78.875 61.375 79.875 61.25C80.875 61.125 81.8958 61 82.9375 60.875C84.0208 60.75 85.3333 60.7083 86.875 60.75C87.9167 60.25 89.1042 59.9167 90.4375 59.75C91.8125 59.5417 93.0833 59.25 94.25 58.875C94.6667 59 95.0208 59.25 95.3125 59.625C95.6042 59.9583 95.875 60.3125 96.125 60.6875C96.4167 61.0208 96.7083 61.3125 97 61.5625C97.2917 61.8125 97.6667 61.8958 98.125 61.8125C98.3333 62.0208 98.4583 62.2708 98.5 62.5625C98.5833 62.8542 98.6458 63.125 98.6875 63.375C98.7708 63.625 98.875 63.8333 99 64C99.125 64.125 99.3542 64.1667 99.6875 64.125C98.8958 65.75 98 67 97 67.875C96.0417 68.75 94.9375 69.4375 93.6875 69.9375C92.4792 70.3958 91.1042 70.75 89.5625 71C88.0625 71.2083 86.375 71.4792 84.5 71.8125C84.0417 71.8958 83.6458 71.8958 83.3125 71.8125C83.0208 71.6875 82.7083 71.625 82.375 71.625C81.2083 71.8333 79.8125 72.0417 78.1875 72.25C76.6042 72.4583 75 72.5417 73.375 72.5C71.75 72.4583 70.1875 72.25 68.6875 71.875C67.1875 71.5 65.9375 70.8333 64.9375 69.875ZM105.125 69.6875C104.958 69.5208 104.812 69.3333 104.688 69.125C104.562 68.875 104.458 68.5625 104.375 68.1875C103.792 67.4792 103.333 66.6667 103 65.75C102.667 64.8333 102.438 63.8958 102.312 62.9375C102.188 61.9375 102.167 60.9375 102.25 59.9375C102.333 58.9375 102.479 58 102.688 57.125C102.812 56.7083 102.917 56.2708 103 55.8125C103.208 55.0208 103.417 54.25 103.625 53.5C103.833 52.7083 104.146 52.0625 104.562 51.5625C104.396 51.1042 104.417 50.6042 104.625 50.0625C104.833 49.5208 105.042 49.0208 105.25 48.5625C105.333 48.4375 105.396 48.3333 105.438 48.25C105.479 48.125 105.521 48.0208 105.562 47.9375C106.062 46.4792 106.542 45.0833 107 43.75C107.5 42.375 107.979 41.0625 108.438 39.8125C109.271 37.5208 110.062 35.2708 110.812 33.0625C111.604 30.8542 112.312 28.5 112.938 26C113.271 25.75 113.562 25.5833 113.812 25.5C113.896 25.4583 114 25.4167 114.125 25.375C114.25 25.3333 114.396 25.3125 114.562 25.3125C115.438 25.7708 116.458 26.2083 117.625 26.625C118.833 27 119.854 27.1875 120.688 27.1875L121.75 28.125C122.292 28.75 122.75 29.4167 123.125 30.125C123.542 30.7917 123.667 31.6667 123.5 32.75C123.25 33.125 123.042 33.3542 122.875 33.4375C122.625 34.3958 122.354 35.25 122.062 36C121.771 36.7083 121.479 37.3958 121.188 38.0625C120.854 38.8125 120.542 39.5625 120.25 40.3125C119.958 41.0625 119.708 41.9792 119.5 43.0625C119.25 43.3542 119.083 43.6042 119 43.8125C118.958 44.0208 118.896 44.2292 118.812 44.4375C118.729 44.6875 118.625 44.9583 118.5 45.25C118.375 45.5 118.188 45.7292 117.938 45.9375C117.771 47.2292 117.521 48.2917 117.188 49.125C116.854 49.9167 116.521 50.7083 116.188 51.5C115.604 52.9583 115.062 54.4167 114.562 55.875C114.062 57.2917 113.771 58.9167 113.688 60.75C114.188 60.625 114.646 60.5625 115.062 60.5625C115.604 60.5625 116.125 60.6458 116.625 60.8125C118.125 60.0625 119.75 59.6042 121.5 59.4375C123.292 59.2708 125.062 59.1667 126.812 59.125C128.271 59.125 129.625 59.0625 130.875 58.9375C131.292 59.2292 131.562 59.3958 131.688 59.4375C131.812 59.4375 132.021 59.4375 132.312 59.4375C132.438 59.4375 132.562 59.4375 132.688 59.4375C132.812 59.4375 132.979 59.4583 133.188 59.5C133.771 60.0833 134.333 60.5 134.875 60.75C135.417 60.9583 136 61.1667 136.625 61.375C137.167 61.5833 137.688 61.8125 138.188 62.0625C138.729 62.2708 139.25 62.5625 139.75 62.9375L140.312 66.125C140.646 66.5833 140.792 66.8958 140.75 67.0625C140.75 67.3958 140.667 67.6875 140.5 67.9375L140.625 68.75C139.833 68.9167 139.312 69.1042 139.062 69.3125C138.812 69.4792 138.542 69.7083 138.25 70C137.792 70.0417 137.354 70.0625 136.938 70.0625C136.104 70.0625 135.25 70.1875 134.375 70.4375C133.125 69.9792 131.75 69.75 130.25 69.75C129.667 69.75 129.062 69.7708 128.438 69.8125C127.854 69.8542 127.271 69.9167 126.688 70C126.062 70.0833 125.438 70.1667 124.812 70.25C124.188 70.2917 123.562 70.3125 122.938 70.3125C122.438 70.3958 122.083 70.4583 121.875 70.5C121.667 70.5417 121.458 70.6042 121.25 70.6875C119.833 71.1458 118.292 71.6042 116.625 72.0625C115 72.5208 113.354 72.75 111.688 72.75C109.229 72.75 107.25 72.125 105.75 70.875C105.583 70.5 105.458 70.25 105.375 70.125C105.292 70 105.208 69.8542 105.125 69.6875ZM145.562 69.875C145.229 69.5417 144.979 69.1458 144.812 68.6875C144.688 68.2292 144.354 67.8542 143.812 67.5625C143.729 66.9375 143.604 66.2292 143.438 65.4375C143.312 64.6042 143.167 63.7708 143 62.9375C142.875 62.0625 142.771 61.2083 142.688 60.375C142.646 59.5 142.688 58.7083 142.812 58C142.896 57.625 143.021 57.2708 143.188 56.9375C143.396 56.6042 143.583 56.2917 143.75 56C143.958 55.6667 144.104 55.3333 144.188 55C144.312 54.6667 144.333 54.3333 144.25 54C144.5 53.9583 144.646 53.8333 144.688 53.625C144.771 53.375 144.979 53.2917 145.312 53.375C145.604 52.4583 145.917 51.6042 146.25 50.8125C146.583 50.0208 146.938 49.25 147.312 48.5C147.688 47.75 148.062 47 148.438 46.25C148.854 45.4583 149.229 44.5833 149.562 43.625C148.854 42.9583 148.333 42.25 148 41.5C147.708 40.7083 147.479 39.9167 147.312 39.125C147.146 38.3333 147.021 37.5417 146.938 36.75C146.854 35.9167 146.688 35.0833 146.438 34.25C146.938 33.5 147.542 32.8958 148.25 32.4375C148.958 31.9375 149.729 31.5417 150.562 31.25C151.438 30.9167 152.375 30.6667 153.375 30.5C154.375 30.2917 155.438 30.0625 156.562 29.8125C158.562 29.1875 160.354 28.7083 161.938 28.375C163.521 28 165.062 27.7083 166.562 27.5C168.062 27.25 169.625 27.0417 171.25 26.875C172.875 26.6667 174.75 26.375 176.875 26C176.917 26.125 176.979 26.1875 177.062 26.1875C177.188 26.1875 177.333 26.1875 177.5 26.1875C177.625 26.4792 177.854 26.625 178.188 26.625C178.188 26.5 178.167 26.3958 178.125 26.3125C178.125 26.1875 178.125 26.0833 178.125 26C178.208 26 178.312 26.0208 178.438 26.0625C178.604 26.1042 178.729 26.1458 178.812 26.1875C178.938 26.2292 179.042 26.2292 179.125 26.1875C179.208 26.1042 179.229 25.9583 179.188 25.75C179.688 26.625 180.333 27.3542 181.125 27.9375C181.917 28.4792 182.792 28.9583 183.75 29.375C183.792 29.75 183.792 30.0208 183.75 30.1875C183.75 30.3542 183.729 30.5208 183.688 30.6875C183.646 30.8125 183.625 30.9792 183.625 31.1875C183.625 31.3542 183.667 31.6042 183.75 31.9375C183.083 33.0625 182.312 33.9375 181.438 34.5625C180.604 35.1875 179.708 35.6667 178.75 36C177.792 36.3333 176.771 36.5833 175.688 36.75C174.646 36.9167 173.562 37.1042 172.438 37.3125C171.354 37.4792 170.25 37.7292 169.125 38.0625C168 38.3958 166.896 38.8958 165.812 39.5625C165.479 39.4375 165.167 39.3958 164.875 39.4375C164.625 39.4375 164.354 39.4792 164.062 39.5625C163.771 39.6458 163.438 39.7292 163.062 39.8125C162.729 39.8958 162.312 39.8958 161.812 39.8125C161.479 40.1042 161.083 40.3125 160.625 40.4375C160.208 40.5625 159.771 40.6875 159.312 40.8125C159.521 41.2708 159.604 41.7292 159.562 42.1875C159.562 42.6458 159.625 43.0417 159.75 43.375C161.5 43.5417 163.438 43.5417 165.562 43.375C167.688 43.1667 169.771 43.0208 171.812 42.9375C171.854 43.1458 171.833 43.2917 171.75 43.375C171.667 43.4583 171.625 43.6042 171.625 43.8125C172 44.0625 172.354 44.375 172.688 44.75C173.021 45.125 173.354 45.5 173.688 45.875C174.062 46.2083 174.438 46.5 174.812 46.75C175.188 46.9583 175.625 47.0417 176.125 47C176.333 47.4167 176.479 47.8542 176.562 48.3125C176.646 48.7708 176.583 49.25 176.375 49.75C175.542 50.2917 174.729 50.8542 173.938 51.4375C173.146 51.9792 172.312 52.4792 171.438 52.9375C170.604 53.3958 169.688 53.7708 168.688 54.0625C167.688 54.3542 166.604 54.4792 165.438 54.4375C165.229 54.4375 165.042 54.4375 164.875 54.4375C164.75 54.4375 164.583 54.3542 164.375 54.1875C163.958 54.3958 163.396 54.4792 162.688 54.4375C162.021 54.3542 161.458 54.4167 161 54.625C160.417 54.4167 159.729 54.3125 158.938 54.3125C158.188 54.3125 157.521 54.2083 156.938 54C156.188 55.0833 155.479 56.2292 154.812 57.4375C154.146 58.6042 153.562 59.8542 153.062 61.1875C154.771 61.4375 156.188 61.5417 157.312 61.5C158.438 61.4583 159.5 61.375 160.5 61.25C161.5 61.125 162.521 61 163.562 60.875C164.646 60.75 165.958 60.7083 167.5 60.75C168.542 60.25 169.729 59.9167 171.062 59.75C172.438 59.5417 173.708 59.25 174.875 58.875C175.292 59 175.646 59.25 175.938 59.625C176.229 59.9583 176.5 60.3125 176.75 60.6875C177.042 61.0208 177.333 61.3125 177.625 61.5625C177.917 61.8125 178.292 61.8958 178.75 61.8125C178.958 62.0208 179.083 62.2708 179.125 62.5625C179.208 62.8542 179.271 63.125 179.312 63.375C179.396 63.625 179.5 63.8333 179.625 64C179.75 64.125 179.979 64.1667 180.312 64.125C179.521 65.75 178.625 67 177.625 67.875C176.667 68.75 175.562 69.4375 174.312 69.9375C173.104 70.3958 171.729 70.75 170.188 71C168.688 71.2083 167 71.4792 165.125 71.8125C164.667 71.8958 164.271 71.8958 163.938 71.8125C163.646 71.6875 163.333 71.625 163 71.625C161.833 71.8333 160.438 72.0417 158.812 72.25C157.229 72.4583 155.625 72.5417 154 72.5C152.375 72.4583 150.812 72.25 149.312 71.875C147.812 71.5 146.562 70.8333 145.562 69.875ZM193.5 66.125C193.083 66.4583 192.833 66.8958 192.75 67.4375C192.667 67.9375 192.562 68.4375 192.438 68.9375C192.312 69.4375 192.083 69.875 191.75 70.25C191.458 70.5833 190.917 70.7292 190.125 70.6875C189.958 70.8958 189.917 71.0208 190 71.0625C190.125 71.1042 190.229 71.2917 190.312 71.625C189.729 71.5417 189.312 71.5833 189.062 71.75C188.812 71.9167 188.5 72.0417 188.125 72.125C187.167 71.8333 186.354 71.3125 185.688 70.5625C185.062 69.7708 184.5 68.9167 184 68C183.542 67.0833 183.125 66.1458 182.75 65.1875C182.417 64.2292 182.062 63.3958 181.688 62.6875C181.688 62.5208 181.771 62.4583 181.938 62.5C182.062 62.5 182.188 62.5 182.312 62.5C182.104 62.0833 181.958 61.625 181.875 61.125C181.75 60.5833 181.542 60.1458 181.25 59.8125C182.458 57.2292 183.75 54.5417 185.125 51.75C186.5 48.9167 187.875 46.0625 189.25 43.1875C190.667 40.2708 192.062 37.3542 193.438 34.4375C194.854 31.4792 196.208 28.5833 197.5 25.75C198.667 26.1667 199.792 26.6667 200.875 27.25C202 27.7917 203.021 28.4375 203.938 29.1875C204.854 29.9375 205.625 30.8125 206.25 31.8125C206.917 32.7708 207.354 33.875 207.562 35.125C207.479 35.375 207.375 35.4583 207.25 35.375C207.125 35.2917 207.021 35.3333 206.938 35.5C207.146 35.75 207.25 35.9375 207.25 36.0625C207.292 36.1458 207.292 36.25 207.25 36.375C207.208 36.4583 207.188 36.5833 207.188 36.75C207.188 36.9167 207.292 37.1458 207.5 37.4375C207.292 37.3958 207.146 37.4375 207.062 37.5625C206.979 37.6458 206.833 37.6458 206.625 37.5625C206.833 38.1458 206.896 38.6042 206.812 38.9375C206.729 39.2708 206.604 39.5833 206.438 39.875C206.271 40.125 206.125 40.4167 206 40.75C205.917 41.0417 205.958 41.4583 206.125 42C205.958 42 205.833 42.0417 205.75 42.125C205.708 42.1667 205.667 42.2292 205.625 42.3125C205.583 42.3958 205.521 42.4792 205.438 42.5625C205.396 42.6042 205.292 42.6042 205.125 42.5625C205.25 43.6458 205.292 44.75 205.25 45.875C205.208 46.9583 205.167 48.0833 205.125 49.25C205.083 50.375 205.083 51.5417 205.125 52.75C205.167 53.9583 205.333 55.2083 205.625 56.5C207.417 55.4583 208.854 54.1042 209.938 52.4375C211.062 50.7708 211.938 48.9167 212.562 46.875C213.229 44.8333 213.729 42.6458 214.062 40.3125C214.438 37.9792 214.812 35.6042 215.188 33.1875C215.646 32.7292 216 32.1667 216.25 31.5C216.542 30.8333 216.771 30.1458 216.938 29.4375C217.146 28.7292 217.333 28.0208 217.5 27.3125C217.708 26.5625 217.979 25.8958 218.312 25.3125C219.062 25.3958 219.688 25.625 220.188 26C220.729 26.3333 221.229 26.7292 221.688 27.1875C222.146 27.6042 222.625 28 223.125 28.375C223.625 28.75 224.25 29 225 29.125C225.583 29.9583 226.125 30.7708 226.625 31.5625C227.125 32.3125 227.458 33.1667 227.625 34.125C227.375 34.5417 227.188 35 227.062 35.5C226.938 36 226.792 36.5 226.625 37C226.5 37.5 226.312 37.9583 226.062 38.375C225.812 38.7917 225.458 39.1458 225 39.4375C224.875 40.6875 224.688 41.8542 224.438 42.9375C224.188 44.0208 223.958 45.0833 223.75 46.125C223.542 47.1667 223.354 48.25 223.188 49.375C223.021 50.5 222.958 51.7292 223 53.0625C222.625 54.2708 222.208 55.5208 221.75 56.8125C221.292 58.0625 220.958 59.2292 220.75 60.3125C219.958 60.9375 219.333 61.7083 218.875 62.625C218.417 63.5417 217.938 64.4583 217.438 65.375C217.229 65.5417 217.104 65.5833 217.062 65.5C217.021 65.375 216.833 65.2917 216.5 65.25C216.542 65.625 216.458 65.875 216.25 66C216.083 66.0833 216.104 66.375 216.312 66.875C215.604 67.2083 214.979 67.6458 214.438 68.1875C213.896 68.7292 213.292 69.2292 212.625 69.6875C212 70.1458 211.25 70.4583 210.375 70.625C209.542 70.75 208.438 70.5625 207.062 70.0625C205.021 68.5625 203.188 66.8333 201.562 64.875C199.938 62.9167 198.646 60.6042 197.688 57.9375C197.271 58.0625 196.958 58.3333 196.75 58.75C196.542 59.1667 196.354 59.6042 196.188 60.0625C196.021 60.5208 195.854 60.9375 195.688 61.3125C195.521 61.6875 195.271 61.875 194.938 61.875C194.854 62.25 194.688 62.6042 194.438 62.9375C194.229 63.2292 194.021 63.5417 193.812 63.875C193.604 64.1667 193.438 64.5 193.312 64.875C193.229 65.25 193.292 65.6667 193.5 66.125ZM227.375 36.75C227.333 36.4167 227.25 36.125 227.125 35.875C227.042 35.5833 226.938 35.2708 226.812 34.9375C226.604 34.4375 226.417 33.8958 226.25 33.3125C226.083 32.7292 226 32.0417 226 31.25C226.083 30.8333 226.188 30.5417 226.312 30.375C226.438 30.1667 226.562 30 226.688 29.875L226.938 28.75H227.875C228.208 28.7917 228.542 28.8125 228.875 28.8125C229.25 28.8125 229.604 28.8125 229.938 28.8125C231.521 28.8125 233.146 28.75 234.812 28.625C236.479 28.5 238.188 28.3542 239.938 28.1875C241.854 27.9375 243.917 27.75 246.125 27.625C246.333 27.1667 246.458 26.875 246.5 26.75C246.583 26.625 246.667 26.4792 246.75 26.3125L247.438 25.9375C248.396 25.8958 249.062 26.0208 249.438 26.3125C249.812 26.5625 250.104 26.8125 250.312 27.0625C251.396 26.9792 252.5 26.875 253.625 26.75C254.75 26.5833 255.917 26.4167 257.125 26.25C258.792 26.0417 260.479 25.8333 262.188 25.625C263.896 25.4167 265.562 25.3125 267.188 25.3125C267.896 25.3125 268.562 25.3333 269.188 25.375C269.812 25.4167 270.417 25.4792 271 25.5625L271.75 26.125C271.917 26.4167 272.125 26.6875 272.375 26.9375C272.625 27.1875 272.917 27.4375 273.25 27.6875C273.875 28.1875 274.479 28.8125 275.062 29.5625C275.688 30.3125 275.917 31.4167 275.75 32.875L275.438 33.5C275.271 33.6667 275.062 33.8333 274.812 34L274.188 34.8125H273.5C273.083 34.8125 272.771 34.8542 272.562 34.9375C272.354 34.9792 272.104 35.0625 271.812 35.1875C271.646 35.2708 271.458 35.3542 271.25 35.4375C271.042 35.4792 270.812 35.5417 270.562 35.625C270.104 35.5833 269.75 35.5625 269.5 35.5625C269.25 35.5625 268.958 35.5625 268.625 35.5625C267.375 35.5625 266.021 35.6458 264.562 35.8125C263.104 35.9792 261.688 36.1667 260.312 36.375C259.312 36.5 258.354 36.625 257.438 36.75C256.521 36.8333 255.688 36.9167 254.938 37C254.521 38.0833 254.146 39.0417 253.812 39.875C253.479 40.7083 253.125 41.5417 252.75 42.375C252.375 43.2083 252.021 44.0625 251.688 44.9375C251.354 45.7708 251.042 46.7083 250.75 47.75C250.25 48.5 249.833 49.2292 249.5 49.9375C249.167 50.6042 248.896 51.375 248.688 52.25C248.062 52.9583 247.604 53.7292 247.312 54.5625C247.062 55.3958 246.833 56.1042 246.625 56.6875L246.375 57.625C246.083 57.9167 245.896 58.1458 245.812 58.3125C245.771 58.4792 245.667 58.6667 245.5 58.875C245.375 59.4167 245.208 59.9375 245 60.4375C244.917 60.6458 244.833 60.875 244.75 61.125C244.667 61.3333 244.646 61.5 244.688 61.625C244.604 62.0833 244.479 62.4375 244.312 62.6875C244.312 62.9375 244.292 63.1875 244.25 63.4375C244.208 63.6875 244.167 63.9375 244.125 64.1875C244.042 64.4792 243.979 64.75 243.938 65C243.896 65.2083 243.917 65.4167 244 65.625C244.125 65.7917 244.25 65.9583 244.375 66.125C244.5 66.2917 244.604 66.5 244.688 66.75C244.771 66.8333 244.875 66.8958 245 66.9375C245.125 66.9792 245.229 67.0417 245.312 67.125C245.646 67.4167 245.958 67.5833 246.25 67.625L246.875 68.375C247.125 69.875 246.896 71.0417 246.188 71.875C245.438 72.8333 244.188 73.3125 242.438 73.3125L241.562 73.25C241.271 72.9583 241.104 72.7708 241.062 72.6875C240.688 72.5208 240.375 72.375 240.125 72.25C239.875 72.1667 239.646 71.9792 239.438 71.6875C239.354 71.6042 239.25 71.5625 239.125 71.5625C239 71.5208 238.896 71.4583 238.812 71.375C238.396 71.25 238.062 71.1042 237.812 70.9375L237.125 70.5625C237.167 70.1458 237.188 69.8542 237.188 69.6875C236.854 69.2292 236.583 68.7292 236.375 68.1875C236.208 67.6458 236.062 67.0833 235.938 66.5C235.812 66.0417 235.688 65.625 235.562 65.25C235.479 64.875 235.333 64.5417 235.125 64.25C235.042 61.3333 235.312 58.8958 235.938 56.9375C236.562 54.9375 237.25 53 238 51.125C238.417 50.125 238.812 49.1042 239.188 48.0625C239.562 47.0208 239.896 45.9583 240.188 44.875L240.875 44.1875C241.167 43.9375 241.354 43.7917 241.438 43.75C241.438 43.2083 241.542 42.6875 241.75 42.1875C241.958 41.6458 242.188 41.1042 242.438 40.5625C242.604 40.2292 242.75 39.8958 242.875 39.5625C243.042 39.2292 243.146 38.9375 243.188 38.6875C242.896 38.6875 242.625 38.7083 242.375 38.75C242.167 38.75 241.938 38.7708 241.688 38.8125C241.146 38.9375 240.625 39 240.125 39C239.75 39 239.479 38.9792 239.312 38.9375C238.979 39.1042 238.667 39.2083 238.375 39.25C238.083 39.25 237.792 39.25 237.5 39.25H236.75H236C235.5 39.25 235.104 39.3125 234.812 39.4375C234.229 39.4375 233.854 39.4375 233.688 39.4375C233.521 39.4375 233.333 39.4375 233.125 39.4375H232.375H231.625C231.292 39.4375 230.917 39.4167 230.5 39.375C230.083 39.2917 229.646 39.125 229.188 38.875L228.75 38.375C228.5 37.9167 228.271 37.6667 228.062 37.625L227.375 37.4375V36.75ZM265.938 72.75C265.354 72.375 264.896 71.8958 264.562 71.3125C264.188 70.7292 263.896 70.1042 263.688 69.4375C263.438 68.7708 263.25 68.0833 263.125 67.375C262.958 66.625 262.792 65.9167 262.625 65.25C262.625 64.6667 262.75 64.25 263 64C263.25 63.7083 263.521 63.4375 263.812 63.1875C264.812 63.1458 265.708 63.0625 266.5 62.9375C267.292 62.8125 268.062 62.6875 268.812 62.5625C269.562 62.4375 270.312 62.3333 271.062 62.25C271.812 62.125 272.625 62.0625 273.5 62.0625C274.125 60.7708 274.708 59.5417 275.25 58.375C275.792 57.1667 276.312 56.0208 276.812 54.9375C277.062 53.8958 277.375 52.9375 277.75 52.0625C278.167 51.1458 278.562 50.2917 278.938 49.5C279.312 48.6667 279.646 47.8542 279.938 47.0625C280.229 46.2292 280.417 45.3542 280.5 44.4375C281 42.9792 281.438 41.6458 281.812 40.4375C282.229 39.1875 282.542 37.7083 282.75 36C281.167 36.25 279.896 36.5 278.938 36.75C277.979 36.9583 277.292 37.1667 276.875 37.375C276.042 37.3333 275.375 37.1667 274.875 36.875C274.417 36.5833 274.042 36.2292 273.75 35.8125C273.458 35.3958 273.208 34.9167 273 34.375C272.792 33.8333 272.542 33.2708 272.25 32.6875C272.417 32.3125 272.458 31.7708 272.375 31.0625C272.292 30.3125 272.042 29.7708 271.625 29.4375C271.958 29.3542 272.208 29.0833 272.375 28.625C272.542 28.125 272.562 27.75 272.438 27.5C273.146 27.2917 273.896 27.1667 274.688 27.125C275.479 27.0417 276.25 26.9792 277 26.9375C277.792 26.8542 278.542 26.7708 279.25 26.6875C279.958 26.5625 280.562 26.3333 281.062 26C283.229 25.9167 285.479 25.8333 287.812 25.75C290.188 25.6667 292.375 25.5625 294.375 25.4375C295.125 25.6875 295.979 25.8125 296.938 25.8125C297.938 25.8125 298.917 25.875 299.875 26C300.875 26.125 301.75 26.3958 302.5 26.8125C303.292 27.2292 303.833 27.9583 304.125 29C304.75 29.0833 305.208 29.25 305.5 29.5C305.833 29.75 306.042 30.0625 306.125 30.4375C306.208 30.7708 306.229 31.1667 306.188 31.625C306.188 32.0417 306.188 32.4583 306.188 32.875C305.521 33.375 304.667 33.7917 303.625 34.125C302.625 34.4167 301.521 34.6667 300.312 34.875C299.104 35.0417 297.833 35.1667 296.5 35.25C295.208 35.2917 293.938 35.3333 292.688 35.375C292.479 36.75 292.104 38.375 291.562 40.25C291.062 42.0833 290.542 43.8958 290 45.6875C289.458 47.4375 288.979 49.0208 288.562 50.4375C288.188 51.8125 288.021 52.7083 288.062 53.125C287.646 54.0833 287.292 54.8958 287 55.5625C286.75 56.2292 286.5 56.8542 286.25 57.4375C286.042 58.0208 285.812 58.6042 285.562 59.1875C285.354 59.7292 285.083 60.3542 284.75 61.0625H289C289.083 61.5208 289.271 61.8333 289.562 62C289.854 62.1667 290.167 62.3125 290.5 62.4375C290.833 62.5625 291.125 62.7292 291.375 62.9375C291.667 63.1042 291.812 63.3958 291.812 63.8125C292.604 64.0208 293.104 64.3333 293.312 64.75C293.521 65.1667 293.562 65.625 293.438 66.125C293.354 66.5833 293.146 67.0625 292.812 67.5625C292.521 68.0625 292.229 68.5 291.938 68.875C291.562 68.7917 291.208 68.8958 290.875 69.1875C290.542 69.4375 290.229 69.7292 289.938 70.0625C288.729 69.8958 287.542 69.875 286.375 70C285.208 70.125 284.125 70.2292 283.125 70.3125C282.917 70.3542 282.833 70.4792 282.875 70.6875C282.917 70.8542 282.875 70.9792 282.75 71.0625C281.458 70.6458 280.125 70.4792 278.75 70.5625C277.417 70.6458 276.042 70.8542 274.625 71.1875C273.25 71.4792 271.833 71.7917 270.375 72.125C268.917 72.5 267.438 72.7083 265.938 72.75ZM303.688 66.5625C302.479 65.6458 301.479 64.5 300.688 63.125C299.938 61.75 299.333 60.2917 298.875 58.75C298.458 57.2083 298.167 55.625 298 54C297.875 52.3333 297.833 50.75 297.875 49.25C298.25 48.125 298.708 47.1042 299.25 46.1875C299.792 45.2292 300.396 44.3333 301.062 43.5C301.729 42.625 302.417 41.8125 303.125 41.0625C303.875 40.2708 304.604 39.4792 305.312 38.6875C305.562 38.6875 305.792 38.75 306 38.875C306.167 38.4167 306.417 38.0208 306.75 37.6875C307.083 37.3542 307.438 37.0625 307.812 36.8125C308.188 36.5208 308.562 36.25 308.938 36C309.312 35.7083 309.625 35.375 309.875 35C310.917 34.75 311.833 34.3958 312.625 33.9375C313.458 33.4792 314.25 32.9792 315 32.4375C315.75 31.8958 316.521 31.3958 317.312 30.9375C318.104 30.4792 319.021 30.125 320.062 29.875C320.438 29.4583 320.896 29.1042 321.438 28.8125C322.021 28.5208 322.583 28.25 323.125 28C323.708 27.75 324.25 27.4792 324.75 27.1875C325.292 26.8958 325.729 26.5 326.062 26C326.312 26.3333 326.667 26.4583 327.125 26.375C327.583 26.25 328 26.125 328.375 26C328.625 25.9583 328.833 26 329 26.125C329.167 26.25 329.312 26.3958 329.438 26.5625C329.604 26.6875 329.729 26.7708 329.812 26.8125C329.938 26.8542 330.062 26.7292 330.188 26.4375C330.521 26.4792 330.604 26.625 330.438 26.875C330.312 27.125 330.229 27.2917 330.188 27.375C330.604 27.2917 330.938 27.375 331.188 27.625C331.479 27.8333 331.917 27.9792 332.5 28.0625C332.708 28.2708 332.771 28.4375 332.688 28.5625C332.604 28.6875 332.542 28.8958 332.5 29.1875C334 29.6458 334.958 30.375 335.375 31.375C335.792 32.3333 335.833 33.3542 335.5 34.4375C335.167 35.4792 334.542 36.4583 333.625 37.375C332.75 38.25 331.771 38.8333 330.688 39.125C329.396 39.4583 328.188 39.7917 327.062 40.125C325.979 40.4583 324.917 40.8333 323.875 41.25C322.875 41.6667 321.917 42.1667 321 42.75C320.125 43.2917 319.354 43.9375 318.688 44.6875C317.521 45.0208 316.458 45.4792 315.5 46.0625C314.583 46.6458 313.708 47.2917 312.875 48C312.083 48.7083 311.312 49.4583 310.562 50.25C309.812 51 309.062 51.75 308.312 52.5C308.312 53.2083 308.188 53.75 307.938 54.125C307.688 54.5 307.417 54.875 307.125 55.25C307.208 56.0417 307.375 56.7292 307.625 57.3125C307.917 57.8542 308.208 58.4167 308.5 59C311.833 60 315.354 60.625 319.062 60.875C322.812 61.0833 326.521 61.2083 330.188 61.25C330.562 61.75 330.979 62.2292 331.438 62.6875C331.938 63.1042 332.375 63.5417 332.75 64C333.167 64.4583 333.479 65 333.688 65.625C333.938 66.2083 334 66.9167 333.875 67.75C333.167 68.4583 332.396 69.1458 331.562 69.8125C330.729 70.4375 329.896 71.0625 329.062 71.6875C328.688 71.7292 328.229 71.7292 327.688 71.6875C327.188 71.6458 326.646 71.625 326.062 71.625C325.521 71.625 324.958 71.6667 324.375 71.75C323.833 71.7917 323.312 71.9167 322.812 72.125C320.188 72.0417 317.5 71.7292 314.75 71.1875C312 70.6042 309.458 69.9167 307.125 69.125C306.667 68.5833 306.188 68.0833 305.688 67.625C305.188 67.125 304.521 66.7708 303.688 66.5625Z" fill="black"/>
<rect x="337" y="46" width="6" height="337" transform="rotate(90 337 46)" fill="#E74949"/>
</svg>
